<?xml version="1.0" standalone="no"?>
<!DOCTYPE svg PUBLIC "-//W3C//DTD SVG 20010904//EN"
 "http://www.w3.org/TR/2001/REC-SVG-20010904/DTD/svg10.dtd">
<svg version="1.0" xmlns="http://www.w3.org/2000/svg"
 width="512.000000pt" height="512.000000pt" viewBox="0 0 512.000000 512.000000"
 preserveAspectRatio="xMidYMid meet">

<g transform="translate(0.000000,512.000000) scale(0.100000,-0.100000)"
fill="#000000" stroke="none">
<path d="M623 4845 c-167 -36 -303 -170 -348 -342 -13 -48 -15 -184 -15 -885
l0 -828 230 0 230 0 2 803 3 802 803 3 802 2 0 230 0 230 -822 -1 c-654 0
-836 -3 -885 -14z"/>
<path d="M2790 4630 l0 -230 803 -2 802 -3 3 -802 2 -803 230 0 230 0 0 808
c0 499 -4 832 -10 872 -21 134 -117 269 -237 333 -105 56 -115 57 -1005 57
l-818 0 0 -230z"/>
<path d="M3292 3699 c-97 -19 -201 -102 -246 -199 -32 -69 -30 -206 5 -280 33
-70 99 -136 169 -169 73 -35 210 -37 280 -4 106 49 191 164 205 277 21 163
-100 334 -262 372 -64 15 -88 16 -151 3z"/>
<path d="M260 1508 c0 -894 0 -890 56 -1000 57 -113 193 -213 323 -238 34 -6
357 -10 872 -10 l819 0 0 230 0 230 -802 2 -803 3 -3 803 -2 802 -230 0 -230
0 0 -822z"/>
<path d="M4398 1528 l-3 -803 -802 -3 -803 -2 0 -230 0 -230 813 0 c473 0 837
4 871 10 132 21 265 117 329 237 56 105 57 115 57 1006 l0 817 -230 0 -230 0
-2 -802z"/>
<path d="M1913 2098 c-97 -123 -300 -377 -450 -565 -150 -188 -273 -344 -273
-347 0 -3 617 -6 1370 -6 754 0 1370 3 1370 6 0 4 -153 211 -341 461 l-340
455 -230 -308 c-127 -170 -232 -310 -234 -312 -1 -2 -154 186 -339 417 -185
232 -340 421 -346 421 -5 0 -89 -100 -187 -222z"/>
</g>
</svg>
